# xmcd
#
# Track frame offsets: 
#        182
#        23177
#        46567
#        66185
#        88247
#        109567
#        131990
#        149120
#        168937
#        190077
#        208637
#        228805
#
# Disc length: 3308 seconds
#
# Revision: 2
# Processed by: cddbd v1.5.2PL0 Copyright (c) Steve Scherf et al.
# Submitted via: ExactAudioCopy v0.95a3
#
DISCID=a50cea0c
DTITLE=Philip Bailey - Philip Bailey
DYEAR=1994
DGENRE=Jazz+Funk
TTITLE0=Stay Right Here
TTITLE1=Just Like Summer
TTITLE2=Here With Me
TTITLE3=A Diamond Just Like You
TTITLE4=I'm Ready
TTITLE5=Love Me Tonight
TTITLE6=I Won't Open My Arms
TTITLE7=Carzy Things You Do For Love
TTITLE8=Live It Up
TTITLE9=Yours
TTITLE10=Call Me
TTITLE11=Something's Missing
EXTD=
EXTT0=
EXTT1=
EXTT2=
EXTT3=
EXTT4=
EXTT5=
EXTT6=
EXTT7=
EXTT8=
EXTT9=
EXTT10=
EXTT11=
PLAYORDER=
